<?xml version="1.0" encoding="utf-8" ?><svg xmlns="http://www.w3.org/2000/svg" xmlns:xlink="http://www.w3.org/1999/xlink" width="1024" height="1024" viewBox="0 0 1024 1024"><path fill="#0D0C1E" d="M0 0L1024 0L1024 1024L0 1024L0 0Z"/><path fill="#52C379" d="M818.817 256.215C831.298 255.704 844.85 256.041 857.498 256.002C869.06 256.304 880.84 255.075 892.295 256.964C907.966 259.55 917.132 277.064 912.565 291.682C905.911 312.978 887.506 311.615 869.403 311.55L838.408 311.349C834.012 311.31 818.307 310.02 816.303 314.553C813.142 321.703 810.377 329.951 807.627 337.342L787.833 389.881L724.522 557.246C718.058 574.609 711.501 591.938 704.853 609.232C695.895 632.921 692.181 651.15 667.53 663.921C647.623 674.233 627.629 671.779 605.746 671.825L539.6 671.911L456.927 671.962C441.866 671.969 426.521 672.141 411.476 671.751C405.291 671.39 399.1 670.562 393.168 668.809C368.368 661.478 360.353 644.319 349.232 623.519L330.762 589.139L255.241 448.169C244.143 426.663 232.042 405.569 220.828 384.116C217.918 378.549 215.306 371.55 215.623 365.196C216.037 357.662 219.419 350.598 225.027 345.551C235.306 336.295 256.532 337.267 263.877 347.151C273.677 360.336 285.222 384.885 293.031 399.648L340.205 487.667L378.754 560.758C388.108 578.517 398.099 598.687 408.842 615.436C411.069 618.909 453.29 617.644 460.108 617.635L540.556 617.559L602.3 617.646C613.402 617.71 624.74 617.996 635.815 617.729C639.031 617.523 641.562 617.5 643.275 614.252C646.866 607.445 649.508 599.014 652.191 591.808C655.615 582.627 659.142 573.485 662.772 564.384C676.076 530.191 689.033 495.865 701.641 461.41L728.616 390.48L751.834 328.896C756.642 316.034 761.239 302.295 766.765 289.794C776.126 268.619 796.596 257.476 818.817 256.215Z"/><path fill="#52C379" d="M316.441 365.116C326.134 364.787 337.303 365.181 347.054 364.996C351.929 364.903 369.256 364.582 373.335 365.734C376.699 369.939 382.895 383.085 385.536 388.362L404.941 427.057C412.446 442.089 482.955 578.104 483.051 581.275C483.095 582.716 482.61 583.006 481.707 584.005C472.32 584.183 462.242 583.82 452.8 583.843C448.256 583.853 434.871 584.13 431.127 583.265C429.497 581.575 427.967 579.261 426.85 577.185C403.994 534.718 381.208 492.212 358.089 449.888L326.893 392.442C323.363 385.903 318.111 376.704 315.177 369.747C314.503 368.149 315.558 366.493 316.441 365.116Z"/><path fill="#52C379" d="M519.584 365.204C523.902 365.052 566.461 364.334 568.076 365.759C572.134 369.338 582.197 392.021 585.493 398.696C596.338 420.528 607.024 442.44 617.55 464.428L634.767 500.004C637.375 505.385 641.969 514.242 643.97 519.548C643.2 523.292 640.439 530.745 639.103 534.55C635.987 543.48 632.771 552.376 629.456 561.234C628.388 564.657 627.172 569.959 624.796 572.628C623.364 574.236 620.34 573.952 619.254 572.118C615.719 566.148 612.491 559.594 609.412 553.376C603.939 542.22 598.367 531.114 592.697 520.058L542.842 421.331C539.404 414.512 516.47 371.029 516.841 368.029C517.465 366.454 518.184 366.173 519.584 365.204Z"/><path fill="#52C379" d="M417.031 365.15C425.791 364.81 466.374 364.184 471.7 365.822C476.768 370.753 494.907 409.738 499.496 418.588C510.446 439.26 521.195 460.037 531.739 480.918C534.519 486.362 537.353 491.759 540.258 497.138C542.151 500.643 541.46 501.828 538.659 504.342C533.869 504.929 521.832 504.769 516.509 504.727C506.698 504.648 494.851 505.119 485.216 504.478C481.854 500.342 476.922 489.872 474.302 484.664L459.043 454.312C445.08 426.671 430.597 399.235 416.542 371.636C414.841 368.297 414.688 367.76 417.031 365.15Z"/><path fill="#52C379" d="M572.636 702.448C598.815 700.147 621.951 719.388 624.462 745.548C626.973 771.708 607.919 794.998 581.78 797.719C555.342 800.471 531.728 781.151 529.188 754.693C526.649 728.234 546.157 704.775 572.636 702.448Z"/><path fill="#0D0C1E" d="M572.233 720.237C588.818 717.644 604.373 728.965 607.005 745.545C609.637 762.124 598.353 777.706 581.78 780.377C565.151 783.057 549.506 771.727 546.866 755.092C544.225 738.457 555.592 722.839 572.233 720.237Z"/><path fill="#52C379" d="M433.042 702.575C459.163 699.161 483.125 717.519 486.628 743.628C490.131 769.737 471.855 793.761 445.758 797.353C419.535 800.962 395.369 782.579 391.849 756.344C388.33 730.108 406.795 706.006 433.042 702.575Z"/><path fill="#0D0C1E" d="M436.755 719.753C453.541 718.444 468.226 730.951 469.606 747.731C470.986 764.511 458.542 779.249 441.769 780.701C424.893 782.162 410.045 769.626 408.657 752.745C407.268 735.863 419.868 721.069 436.755 719.753Z"/><path fill="#52C379" d="M615.084 365.243C624.085 364.961 633.542 365.028 642.568 364.989C648.732 364.961 657.153 364.733 663.057 365.375C667.784 370.744 682.682 401.344 685.29 408.348C682.866 418.632 673.51 441.872 669.486 452.906C668.342 456.339 666.014 466.87 661.487 465.782C658.06 464.959 652.771 451.883 650.97 448.284C645.076 436.609 639.267 424.891 633.542 413.131L620.069 385.948C617.686 381.16 615.226 376.385 613.022 371.514C611.608 368.391 611.716 366.594 615.084 365.243Z"/><path fill="#52C379" d="M507.635 539.131L539.128 539.148C545.105 539.105 556.73 537.187 560.616 542.091C562.55 544.763 566.438 551.311 567.438 554.198C569.206 559.298 581.152 577.845 580.847 582.2C580.044 583.761 580.021 583.622 578.435 584.456C562.111 584.518 541.149 585.053 525.093 584.307C522.045 580.035 504.458 545.227 504.675 542.048C505.351 540.395 506.13 540.116 507.635 539.131Z"/></svg>